# xmcd CD database file
#
# Track frame offsets:
#	182
#	11807
#	24482
#	41130
#	55270
#	71345
#	85700
#	99887
#	113232
#	123395
#	136295
#	150807
#	164545
#	176885
#
# Disc length: 2496 seconds
#
# Revision: 0
# Processed by: cddbd v1.4PL0 Copyright (c) Steve Scherf et al.
# Submitted via: Feurio! 1.65 - http://www.feurio.com
#
DISCID=ae09be0e
DTITLE=New Seekers - Never Ending Song Of Love
DYEAR=1900
DGENRE=Pop
TTITLE0=I'd Like To Teach The World To Sing (In Perfect Harmony)
TTITLE1=Big Steal Or Borrow
TTITLE2=Circles
TTITLE3=Pinball Wizard - See Me, Feel Me (Tommy)
TTITLE4=Anthem
TTITLE5=You Won't Find Another Fool Like Me
TTITLE6=Never Ending Song Of Love
TTITLE7=I Get A Little Sentimental Over You
TTITLE8=Come Softly To Me
TTITLE9=I Wanna Go Back
TTITLE10=What Have They Done To My Song, Ma
TTITLE11=Runaway
TTITLE12=Stay
TTITLE13=The Power Of Love
EXTD=
EXTT0=
EXTT1=
EXTT2=
EXTT3=
EXTT4=
EXTT5=
EXTT6=
EXTT7=
EXTT8=
EXTT9=
EXTT10=
EXTT11=
EXTT12=
EXTT13=
PLAYORDER=
